<?xml version="1.0" encoding="UTF-8" standalone="no"?>
<svg xmlns:rdf="http://www.w3.org/1999/02/22-rdf-syntax-ns#" xmlns="http://www.w3.org/2000/svg" xml:space="preserve" height="1071.3" viewBox="0 0 1071.26 1071.26" width="1071.3" version="1.1" xmlns:cc="http://creativecommons.org/ns#" xmlns:dc="http://purl.org/dc/elements/1.1/"><metadata><rdf:RDF><cc:Work rdf:about=""><dc:format>image/svg+xml</dc:format><dc:type rdf:resource="http://purl.org/dc/dcmitype/StillImage"/><dc:title/></cc:Work></rdf:RDF></metadata><defs><clipPath id="a" clipPathUnits="userSpaceOnUse"><path d="m0 857.01h857.01v-857.01h-857.01v857.01z"/></clipPath></defs><g transform="matrix(1.25 0 0 -1.25 0 1071.3)"><g clip-path="url(#a)"><g transform="translate(331.4 273.84)"><path d="m0 0c0-3.964-3.221-7.185-7.185-7.185-3.97 0-7.199 3.221-7.199 7.185 0 3.978 3.229 7.185 7.199 7.185 3.964 0 7.185-3.207 7.185-7.185" fill="#004b70"/></g><path d="m332.75 167.62h-17.087v85.321h17.087v-85.321z" fill="#004b70"/><g transform="translate(554.71 252.94)"><path d="m0 0h-22.267-17.072-22.268v-14.667h22.268v-70.654h17.072v70.654h22.267v14.667z" fill="#004b70"/></g><g transform="translate(445.81 182.26)"><path d="m0 0v70.677h-17.064v-85.321h0.007 17.057 37.676v14.644h-37.676z" fill="#004b70"/></g><g transform="translate(410.45 238.27)"><path d="m0 0v14.667h-41.261-17.064-0.008v-85.321h0.008 17.064 41.261v14.644h-41.261v22.416h36.904v14.637h-36.904v18.957h41.261z" fill="#004b70"/></g><path d="m315.66 139.57h239.05v-5.434h-239.05v5.434z" fill="#004b70"/><g transform="translate(434.29 91.354)"><path d="m0 0c0-2.628-2.137-4.765-4.776-4.765-2.632 0-4.776 2.137-4.776 4.765 0 2.643 2.144 4.78 4.776 4.78 2.639 0 4.776-2.137 4.776-4.78" fill="#004b70"/></g><g transform="translate(321.38 102.12)"><path d="m0 0v-7.504h11.267v-4.832h-11.267v-14.667h-5.694v32.065h21.122v-5.062h-15.428z" fill="#004b70"/></g><g transform="translate(362.82 105.47)"><path d="m0 0-2.342-4.706c-1.269 1.262-3.31 1.901-6.127 1.901-2.668 0-4.858-1.121-6.565-3.355-1.707-2.242-2.561-5.077-2.561-8.507 0-3.428 0.795-6.146 2.376-8.164 1.581-2.012 3.696-3.014 6.335-3.014 3.02 0 5.385 1.076 7.092 3.236l2.646-4.602c-2.319-2.464-5.719-3.696-10.195-3.696-4.483 0-7.96 1.478-10.443 4.424-2.48 2.946-3.719 6.962-3.719 12.054 0 4.743 1.373 8.714 4.127 11.898 2.746 3.185 6.268 4.78 10.559 4.78 3.677 0 6.617-0.749 8.817-2.249" fill="#004b70"/></g><g transform="translate(367.39 76.888)"><path d="m0 0 2.101 5.099c2.245-1.573 4.453-2.361 6.628-2.361 3.34 0 5.014 1.159 5.014 3.497 0 1.091-0.397 2.137-1.185 3.124-0.786 0.995-2.408 2.109-4.868 3.341-2.457 1.232-4.112 2.249-4.966 3.043-0.853 0.794-1.51 1.737-1.971 2.835-0.456 1.099-0.686 2.302-0.686 3.637 0 2.479 0.905 4.528 2.724 6.169 1.815 1.632 4.145 2.449 6.992 2.449 3.703 0 6.424-0.691 8.16-2.078l-1.729-4.907c-2 1.433-4.108 2.153-6.323 2.153-1.314 0-2.331-0.357-3.055-1.039-0.72-0.698-1.084-1.604-1.084-2.702 0-1.841 2.038-3.756 6.109-5.738 2.145-1.046 3.689-2.019 4.639-2.902s1.67-1.915 2.168-3.088c0.493-1.173 0.742-2.478 0.742-3.926 0-2.591-1.025-4.728-3.073-6.405-2.052-1.679-4.799-2.525-8.239-2.525-2.991 0-5.693 0.773-8.098 2.324" fill="#004b70"/></g><g transform="translate(410.46 75.114)"><path d="m0 0v14.444h-12.759v-14.444h-5.69v32.065h5.69v-12.566h12.759v12.566h5.622v-32.065h-5.622z" fill="#004b70"/></g><g transform="translate(463.98 74.676)"><path d="m0 0-15.558 20.285v-19.869h-5.47v32.086h2.739l15.142-19.35v19.35h5.471v-32.502h-2.324z" fill="#004b70"/></g><g transform="translate(477.74 91.414)"><path d="m0 0c0-3.741 0.631-6.651 1.9-8.706 1.269-2.056 3.117-3.081 5.537-3.081 2.843 0 5.017 1.003 6.509 3.014 1.5 2.018 2.242 4.943 2.242 8.773 0 7.512-2.768 11.275-8.313 11.275-2.539 0-4.484-1.017-5.842-3.051-1.358-2.033-2.033-4.78-2.033-8.224m-5.916 0c0 4.573 1.255 8.432 3.756 11.594 2.501 3.154 5.849 4.736 10.035 4.736 4.609 0 8.135-1.425 10.569-4.291 2.435-2.857 3.652-6.873 3.652-12.039s-1.269-9.263-3.815-12.292c-2.545-3.043-6.16-4.557-10.844-4.557-4.305 0-7.608 1.5-9.902 4.513-2.301 2.999-3.451 7.118-3.451 12.336" fill="#004b70"/></g><g transform="translate(516.28 74.676)"><path d="m0 0h-3.125l-11.995 32.502h6.258l7.422-21.673 7.831 21.673h6.13l-12.521-32.502z" fill="#004b70"/></g><g transform="translate(540.57 97.812)"><path d="m0 0-3.853-11.846h7.705l-3.852 11.846zm7.86-22.698-2.346 6.503h-10.985l-2.234-6.503h-6.323l12.781 32.496h2.494l12.892-32.496h-6.279z" fill="#004b70"/></g><g transform="translate(246.48 197.68)"><path d="m0 0-28.539-36.355-6.449 5.052l28.532 36.368 6.456-5.065z" fill="#004b70"/></g><g transform="translate(211.69 229.33)"><path d="m0 0-4.046-36.648 19.819 20.698 5.694-5.456-31.999-33.401-2.843 2.733 3.527 35.245-19.295-20.149-5.693 5.468l32.42 33.829 2.416-2.319z" fill="#004b70"/></g><g transform="translate(203.05 233.94)"><path d="m0 0-7.615-2.294c-0.281 3.929-1.416 7.127-3.393 9.555-3.045 3.735-5.87 4.54-8.482 2.404-1.22-1-2.025-2.367-2.422-4.161-0.391-1.794-0.153-4.613 0.702-8.482 0.866-3.881 1.238-6.651 1.135-8.323-0.116-1.684-0.574-3.27-1.379-4.784-0.8-1.501-1.941-2.88-3.424-4.076-2.782-2.257-5.9-3.124-9.384-2.575-3.478 0.537-6.511 2.392-9.104 5.577-3.375 4.138-5.083 7.823-5.108 11.008l7.042 2.526c0.232-3.526 1.355-6.529 3.368-9.006 1.196-1.477 2.514-2.282 3.936-2.465 1.44-0.183 2.776 0.232 4.015 1.257 2.056 1.672 2.337 5.675 0.848 12.033-0.781 3.368-1.11 5.968-0.988 7.835s0.61 3.6 1.476 5.223c0.861 1.623 2.087 3.112 3.71 4.406 2.905 2.367 6.224 3.173 9.971 2.404 3.734-0.745 7.176-3.063 10.312-6.908 2.722-3.344 4.32-7.066 4.784-11.154" fill="#004b70"/></g><g transform="translate(140.99 256.82)"><path d="m0 0 32.841 20.905 4.405-6.907-32.84-20.93 7.895-12.387-6.15-3.905-20.558 32.267 6.151 3.905l8.256-12.948z" fill="#004b70"/></g><g transform="translate(163.93 294.97)"><path d="m0 0-41.115-21.113-3.752 7.298l41.108 21.113 3.759-7.298z" fill="#004b70"/></g><g transform="translate(112.78 313.35)"><path d="m0 0 36.136 14.498 3.051-7.615-36.124-14.498 5.467-13.644-6.76-2.709-14.255 35.525 6.768 2.697 5.717-14.254z" fill="#004b70"/></g><g transform="translate(97.574 333.63)"><path d="m0 0-2.038 7.932 30.339 7.811c2.404 0.61 4.173 1.843 5.308 3.698 1.123 1.855 1.367 4.064 0.702 6.626-0.738 2.881-2.056 4.931-3.936 6.139-1.891 1.233-4.112 1.501-6.681 0.842l-30.186-7.762-2.051 7.957 30.809 7.921c4.607 1.183 8.61 0.549 12.002-1.855 3.405-2.429 5.761-6.188 7.091-11.362 1.33-5.187 1.086-9.531-0.732-12.997-1.831-3.478-5.102-5.834-9.861-7.042l-30.766-7.908z" fill="#004b70"/></g><g transform="translate(91.642 400.05)"><path d="m0 0 38.662 4.589 0.964-8.153-38.662-4.576 1.739-14.596-7.243-0.866-4.503 37.99 7.225 0.867 1.818-15.255z" fill="#004b70"/></g><g transform="translate(105.04 429.07)"><path d="m0 0c5.394-0.079 9.598 0.775 12.582 2.551 2.996 1.787 4.528 4.43 4.577 7.914 0.048 4.106-1.349 7.255-4.223 9.452-2.868 2.209-7.066 3.344-12.6 3.417-10.831 0.171-16.299-3.759-16.421-11.746-0.061-3.649 1.367-6.475 4.272-8.494 2.91-1.996 6.834-3.021 11.813-3.094m-0.134-8.518c-6.578 0.085-12.119 1.971-16.622 5.65-4.503 3.673-6.7 8.543-6.614 14.578 0.097 6.638 2.233 11.679 6.407 15.138 4.173 3.442 9.976 5.12 17.427 5.016 7.444-0.116 13.326-2.038 17.646-5.772 4.321-3.747 6.432-8.982 6.334-15.731-0.097-6.206-2.331-10.935-6.712-14.181-4.381-3.258-10.343-4.808-17.866-4.698" fill="#004b70"/></g><g transform="translate(95.395 498.52)"><path d="m0 0 30.864-6.553c0.408 1.275 0.762 2.66 1.086 4.149 0.86 4.052 0.055 7.554-2.398 10.471-2.453 2.91-6.322 4.942-11.612 6.065-9.672 2.05-15.463-1.422-17.373-10.41-0.17-0.866-0.372-2.099-0.567-3.722m38.607-6.096-2.13-10.031-45.178 9.586c1.129 6.456 1.873 10.501 2.215 12.143 1.409 6.577 4.442 11.404 9.116 14.424 4.674 3.051 10.202 3.893 16.585 2.539 16.249-3.46 22.711-13.009 19.392-28.661" fill="#004b70"/></g><g transform="translate(106.51 541.21)"><path d="m0 0 10.227-3.515 4.979 14.425 6.59-2.264-4.973-14.437 13.089-4.521 6.834 19.807 6.883-2.374-9.501-27.569-43.696 15.084 9.623 27.88 6.883-2.374-6.938-20.142z" fill="#004b70"/></g><g transform="translate(129.57 595.39)"><path d="m0 0 9.47-5.229 7.396 13.369 6.096-3.387-7.378-13.357 12.113-6.694 10.135 18.325 6.383-3.521-14.108-25.512-40.456 22.369 14.279 25.817 6.382-3.533-10.312-18.647z" fill="#004b70"/></g><g transform="translate(173.84 599.62)"><path d="m0 0-4.259 6.724c3.734 1.343 6.498 3.271 8.311 5.834 2.782 3.929 2.794 6.864 0.048 8.805-1.293 0.921-2.843 1.318-4.661 1.226-1.831-0.097-4.491-1.086-7.994-2.947-3.496-1.879-6.065-2.978-7.713-3.325-1.641-0.336-3.307-0.318-4.973 0.054-1.672 0.367-3.283 1.105-4.851 2.203-2.917 2.069-4.582 4.845-4.997 8.342-0.409 3.508 0.579 6.919 2.941 10.269 3.087 4.363 6.169 6.993 9.244 7.878l4.333-6.121c-3.344-1.159-5.944-3.044-7.786-5.656-1.099-1.538-1.538-3.033-1.331-4.448 0.226-1.428 0.977-2.606 2.289-3.533 2.154-1.526 6.101-0.714 11.831 2.41 3.015 1.647 5.443 2.673 7.274 3.051 1.83 0.378 3.636 0.384 5.43-0.018 1.8-0.391 3.546-1.19 5.248-2.405 3.051-2.16 4.711-5.144 4.979-8.945 0.269-3.814-1.025-7.756-3.893-11.801-2.496-3.515-5.644-6.047-9.47-7.597" fill="#004b70"/></g><g transform="translate(179.3 665.62)"><path d="m0 0 28.96-26.025-5.492-6.102-28.948 26.025-9.83-10.935-5.424 4.87l25.585 28.471 5.412-4.869-10.263-11.435z" fill="#004b70"/></g><g transform="translate(191.12 688.54)"><path d="m0 0 6.242 5.315 20.314-23.859c1.61-1.891 3.496-2.929 5.662-3.136 2.16-0.208 4.247 0.561 6.267 2.282 2.258 1.928 3.521 3.991 3.789 6.236 0.269 2.227-0.451 4.357-2.172 6.358l-20.216 23.731 6.242 5.327 20.625-24.207c3.075-3.618 4.283-7.493 3.606-11.612-0.677-4.112-3.051-7.895-7.096-11.349-4.083-3.466-8.092-5.162-12.009-5.04-3.924 0.11-7.469 2.038-10.654 5.772l-20.6 24.182z" fill="#004b70"/></g><g transform="translate(239.24 717.34)"><path d="m0 0 17-26.58c1.172 0.604 2.416 1.33 3.71 2.148 3.49 2.239 5.412 5.241 5.772 9.049 0.354 3.783-0.921 7.969-3.832 12.521-5.333 8.342-11.862 10.026-19.611 5.077-0.739-0.482-1.758-1.22-3.039-2.215m22.748-31.785-8.64-5.51-24.878 38.912c5.382 3.722 8.793 6.035 10.209 6.944 5.668 3.625 11.227 4.839 16.676 3.637 5.449-1.208 9.928-4.54 13.443-10.038 8.945-14.01 6.675-25.317-6.81-33.945" fill="#004b70"/></g><g transform="translate(282.45 724.83)"><path d="m0 0c2.264-4.912 4.845-8.329 7.749-10.27 2.905-1.909 5.944-2.147 9.111-0.683 3.728 1.709 5.955 4.332 6.7 7.878 0.744 3.533-0.037 7.81-2.356 12.838-4.527 9.836-10.428 13.089-17.689 9.745-3.32-1.538-5.26-4.04-5.803-7.524-0.556-3.484 0.213-7.475 2.288-11.984m-7.737-3.57c-2.758 5.98-3.448 11.802-2.075 17.446 1.367 5.644 4.796 9.72 10.276 12.252 6.041 2.777 11.514 3.033 16.432 0.763 4.912-2.276 8.933-6.797 12.052-13.564 3.111-6.767 3.917-12.894 2.416-18.41-1.501-5.498-5.327-9.671-11.46-12.497-5.625-2.599-10.855-2.623-15.681-0.067-4.821 2.545-8.806 7.237-11.96 14.077" fill="#004b70"/></g><g transform="translate(323.63 720.07)"><path d="m0 0 0.641 7.926c3.783-1.177 7.151-1.281 10.141-0.335 4.589 1.464 6.37 3.795 5.345 7.011-0.476 1.495-1.476 2.752-2.99 3.777-1.525 1.013-4.24 1.824-8.152 2.453-3.917 0.598-6.639 1.269-8.164 1.989-1.513 0.72-2.831 1.733-3.942 3.033-1.104 1.3-1.959 2.862-2.538 4.68-1.086 3.405-0.745 6.627 1.037 9.684 1.782 3.032 4.619 5.168 8.53 6.425 5.089 1.623 9.123 1.867 12.119 0.72l-0.226-7.487c-3.374 1.092-6.584 1.135-9.623 0.165-1.806-0.562-3.051-1.489-3.746-2.758-0.684-1.269-0.781-2.661-0.293-4.186 0.805-2.532 4.436-4.259 10.898-5.199 3.405-0.506 5.955-1.153 7.64-1.947 1.696-0.799 3.13-1.897 4.332-3.301 1.196-1.385 2.105-3.081 2.746-5.064 1.135-3.552 0.671-6.944-1.416-10.148-2.081-3.203-5.479-5.565-10.202-7.066-4.119-1.312-8.165-1.44-12.137-0.372" fill="#004b70"/></g><g transform="translate(376.02 771.09)"><path d="m0 0 4.198-31.266c1.33 0.042 2.758 0.171 4.284 0.378 4.106 0.549 7.114 2.471 9.043 5.779 1.916 3.295 2.526 7.609 1.806 12.96-1.324 9.806-6.535 14.089-15.645 12.857-0.879-0.11-2.106-0.354-3.686-0.708m7.225-38.406-10.154-1.366-6.157 45.776c6.45 1.099 10.514 1.758 12.174 1.977 6.675 0.916 12.228-0.335 16.658-3.728 4.43-3.374 7.09-8.299 7.957-14.767 2.221-16.457-4.613-25.756-20.478-27.892" fill="#004b70"/></g><g transform="translate(420.21 774.97)"><path d="m0 0 0.092-10.831 15.273 0.128 0.067-6.956-15.267-0.146 0.11-13.846 20.954 0.196 0.061-7.304l-29.143-0.257-0.415 46.216 29.497 0.269 0.073-7.286-21.302-0.183z" fill="#004b70"/></g><g transform="translate(464.48 734.23)"><path d="m0 0 7.554 45.6 8.091-1.343-6.358-38.411 20.6-3.411-1.184-7.195-28.703 4.76z" fill="#004b70"/></g><g transform="translate(498.45 727.87)"><path d="m0 0 11.386 44.788 7.957-2.02-11.398-44.788-7.945 2.02z" fill="#004b70"/></g><g transform="translate(545.74 754.14)"><path d="m0 0-13.046-36.679-7.725 2.765 13.046 36.678-13.851 4.931 2.44 6.864l36.063-12.844-2.441-6.865-14.486 5.15z" fill="#004b70"/></g><g transform="translate(575.17 741.72)"><path d="m0 0-4.833-9.665 13.669-6.829-3.112-6.23-13.669 6.804-6.175-12.393 18.745-9.348-3.258-6.517-26.08 13.003l20.625 41.365 26.397-13.168-3.247-6.517-19.062 9.495z" fill="#004b70"/></g><g transform="translate(609.96 722.72)"><path d="m0 0-7.066-10.733c1.196-0.94 2.136-1.629 2.807-2.063 2.856-1.885 5.223-2.855 7.078-2.929 1.855-0.061 3.551 1.08 5.101 3.417 1.245 1.892 1.404 3.692 0.476 5.376-0.927 1.69-2.917 3.545-5.98 5.565-0.732 0.482-1.55 0.934-2.416 1.367m-6.834-42.305 0.183 22.724c-1.025 0.714-2.441 1.721-4.223 3.051l-10.617-16.127-7.115 4.674 25.421 38.613c0.366-0.251 1.904-1.16 4.564-2.728 2.673-1.568 4.808-2.868 6.383-3.911 9.799-6.45 12.203-13.473 7.212-21.064-1.501-2.282-3.551-3.93-6.138-4.912-2.6-0.989-5.163-1.202-7.725-0.617l-0.049-24.901-7.896 5.198z" fill="#004b70"/></g><g transform="translate(647.91 686.44)"><path d="m0 0-15.401-9.196 8.347-7.31l7.054 16.506zm-12.997-32.084 3.624 9.275-11.935 10.422-8.579-4.936-6.871 6.004 44.715 23.132 2.697-2.355-16.841-47.51-6.81 5.968z" fill="#004b70"/></g><g transform="translate(682.16 661.25)"><path d="m0 0-28.813-26.183-5.516 6.071 28.801 26.183-9.885 10.88 5.394 4.906 25.75-28.319-5.394-4.9l-10.337 11.362z" fill="#004b70"/></g><g transform="translate(703.71 647.24)"><path d="m0 0 4.662-6.749-25.775-17.811c-2.038-1.422-3.27-3.179-3.697-5.315-0.415-2.13 0.134-4.284 1.635-6.48 1.696-2.429 3.637-3.899 5.821-4.375 2.197-0.495 4.381 0.006 6.566 1.513l25.64 17.726 4.662-6.749-26.165-18.08c-3.905-2.709-7.872-3.514-11.899-2.422-4.027 1.098-7.554 3.82-10.581 8.201-3.051 4.418-4.32 8.561-3.819 12.466 0.5 3.887 2.77 7.231 6.809 10.001l26.141 18.074z" fill="#004b70"/></g><g transform="translate(727.5 596.58)"><path d="m0 0-11.423-5.84c0.562-1.403 1.038-2.471 1.404-3.173 1.562-3.051 3.136-5.064 4.71-6.04 1.599-0.977 3.625-0.824 6.127 0.451 2.013 1.025 3.038 2.52 3.075 4.436 0.024 1.941-0.793 4.534-2.465 7.792-0.403 0.781-0.879 1.587-1.428 2.374m-26.8-33.42 11.374 19.685c-0.561 1.116-1.281 2.697-2.184 4.735l-17.195-8.799-3.881 7.578 41.151 21.052c0.208-0.403 1.086-1.959 2.636-4.625 1.562-2.679 2.758-4.864 3.625-6.548 5.345-10.465 3.966-17.756-4.113-21.887-2.441-1.251-5.028-1.666-7.774-1.239-2.746 0.421-5.077 1.501-7.017 3.277l-12.326-21.656-4.296 8.427z" fill="#004b70"/></g><g transform="translate(742.61 546.41)"><path d="m0 0-17.952-0.415 3.686-10.477 14.266 10.892zm-27.117-21.546 7.725 6.309-5.26 14.932-9.909-0.079-3.027 8.603 50.317-1.824 1.196-3.387-38.028-33.097-3.014 8.543z" fill="#004b70"/></g><g transform="translate(762.6 494.97)"><path d="m0 0-10.691-1.721 2.429-15.09-6.883-1.092-2.429 15.072-13.668-2.209 3.332-20.674-7.2-1.159l-4.626 28.771 45.618 7.353 4.699-29.131-7.188-1.159-3.393 21.039z" fill="#004b70"/></g><g transform="translate(767.6 425.79)"><path d="m0 0-38.918 0.751 0.159 8.207 38.918-0.757 0.28 14.7 7.298-0.147-0.744-38.247-7.286 0.134l0.293 15.359z" fill="#004b70"/></g><g transform="translate(765.26 393.45)"><path d="m0 0-12.716 1.867c-0.342-1.501-0.562-2.624-0.684-3.417-0.488-3.393-0.39-5.931 0.342-7.652 0.732-1.708 2.465-2.77 5.248-3.173 2.245-0.329 3.929 0.281 5.076 1.831 1.148 1.55 1.977 4.137 2.514 7.762 0.122 0.878 0.196 1.794 0.22 2.782m-41.225-11.667 20.674 9.422c0.195 1.22 0.525 2.928 0.976 5.113l-19.111 2.807 1.245 8.433 45.727-6.725c-0.073-0.463-0.244-2.233-0.537-5.308-0.292-3.088-0.573-5.553-0.854-7.432-1.708-11.619-7.054-16.769-16.048-15.438-2.697 0.402-5.052 1.562-7.041 3.49-1.99 1.928-3.271 4.186-3.82 6.736l-22.59-10.47 1.379 9.372z" fill="#004b70"/></g><g transform="translate(748.47 344)"><path d="m0 0-14.852 10.068-3.075-10.678 17.927 0.61zm-34.561-1.806 9.934 0.647 4.393 15.218-8.103 5.675 2.526 8.774 39.894-30.705-1-3.466-50.158-4.845 2.514 8.702z" fill="#004b70"/></g><g transform="translate(742.44 307.3)"><path d="m0 0-28.899 12.643c-0.646-1.159-1.281-2.441-1.879-3.856-1.684-3.783-1.599-7.371 0.22-10.727 1.806-3.344 5.198-6.115 10.141-8.275 9.055-3.978 15.438-1.745 19.111 6.676 0.366 0.818 0.793 1.989 1.306 3.539m-36.563 13.754 4.101 9.409l42.311-18.526c-2.405-6.101-3.955-9.897-4.626-11.447-2.697-6.163-6.639-10.263-11.838-12.301-5.198-2.014-10.775-1.721-16.743 0.891-15.231 6.651-19.636 17.317-13.205 31.974" fill="#004b70"/></g><g transform="translate(692.75 293.57)"><path d="m0 0 40.383-22.492-4.003-7.163-40.371 22.479 3.991 7.176z" fill="#004b70"/></g><g transform="translate(702.75 227.75)"><path d="m0 0-3.686 6.614c2.539 0.476 4.955 2.392 7.25 5.736 2.184 3.161 2.636 6.688 1.366 10.544-1.281 3.857-3.954 7.176-8.03 9.983-4.076 2.795-7.957 4.064-11.642 3.832-3.686-0.256-6.602-1.94-8.763-5.077-2.453-3.6-3.099-7.298-1.928-11.081l-7.615 0.586c-1.05 4.784 0.269 9.824 3.905 15.157 3.661 5.321 8.25 8.25 13.778 8.799 5.529 0.549 11.313-1.245 17.366-5.394 5.639-3.869 9.227-8.726 10.789-14.596 1.537-5.87 0.573-11.361-2.929-16.463-2.99-4.381-6.285-7.249-9.861-8.64m-35.769 48.937 4.039-1.196c-0.561-0.476-1.049-1.037-1.477-1.659-1.562-2.282-1.55-3.954 0.025-5.04 0.573-0.379 1.257-0.586 2.038-0.611 0.769 0 1.415 0.208 1.928 0.659l0.805-3.807c-2.782-2.673-5.65-3.002-8.591-0.989-1.672 1.147-2.563 2.661-2.66 4.528-0.098 1.879 0.524 3.82 1.867 5.76 0.61 0.891 1.281 1.672 2.026 2.355" fill="#004b70"/></g><g transform="translate(692.63 207.41)"><path d="m0 0 3.051 3.417c1.525-1.916 2.441-3.808 2.746-5.711 0.317-1.904-0.122-3.527-1.318-4.857-1.099-1.221-2.49-2.173-4.198-2.844-1.684-0.696-2.697-1.208-3.002-1.55-0.855-0.952-0.867-2.172-0.025-3.673l-3.112-3.466c-1.794 2.685-2.746 4.845-2.819 6.468-0.073 1.611 0.476 3.075 1.635 4.369 0.879 0.976 2.173 1.806 3.893 2.526 1.721 0.696 2.746 1.245 3.088 1.623 0.72 0.806 0.744 2.05 0.061 3.698m-16.17 6.444-9.007 15.523-7.407-8.262 16.414-7.261zm-31.925 13.399 9.226-3.734 10.568 11.777-4.832 8.664 6.089 6.786 22.59-44.971-2.392-2.685-47.29 17.415 6.041 6.748z" fill="#004b70"/></g><g transform="translate(647.81 197.64)"><path d="m0 0c-3.527 4.113-6.932 6.7-10.251 7.762-3.32 1.074-6.297 0.463-8.97-1.794-3.112-2.673-4.552-5.809-4.308-9.409 0.256-3.625 2.172-7.518 5.76-11.728 7.042-8.238 13.595-9.751 19.673-4.565 2.782 2.368 3.966 5.321 3.551 8.824-0.427 3.502-2.245 7.139-5.455 10.91m6.468 5.528c4.271-4.991 6.517-10.41 6.737-16.206 0.219-5.809-1.977-10.679-6.566-14.596-5.053-4.32-10.251-6.053-15.597-5.199-5.357 0.866-10.446 4.101-15.279 9.763-4.833 5.675-7.286 11.362-7.334 17.061-0.049 5.711 2.489 10.776 7.627 15.145 4.711 4.039 9.739 5.492 15.072 4.345 5.333-1.148 10.446-4.589 15.34-10.313" fill="#004b70"/></g><g transform="translate(415.73 373.71)"><path d="m0 0c-1.544 11.928 6.869 22.839 18.786 24.383 5.404 0.697 10.606-0.639 14.822-3.444 17.732 20.515 35.606 41.25 46.844 64.52 6.427 13.341 14.525 30.413 12.046 49.444 0 0-17.183-76.8-127.58-102.09 0 0 4.967-70.751-44.044-112.12 0 0 41.513 28.332 83.287 69.096-2.172 2.889-3.656 6.362-4.161 10.214" fill="#f39200"/></g><g transform="translate(614.76 476.96)"><path d="m0 0c-7.155-9.297-29.089-17.25-47.563-26.88-10.525-5.486-21.392-14.344-23.708-16.263 2.561 2.394 14.845 15.491 27.441 21.232 19.863 9.063 37.402 36.552 39.057 50.428 3.644 30.439-2.145 46.208-2.145 46.208-4.053 17.807-23.796 36.99-22.772 34.752 5.188-11.334 2.026-47.578-6.866-55.464-1.173-1.009-4.638-4.364-7.385-7.901-5.656-7.311-13.294-19.714-7.668-9.723 6.532 11.601 9.078 13.612 10.741 18.511 8.157 23.878-4.506 53.019-15.854 65.458-10.749 11.758-52.114 36.745-52.114 36.745 20.962-22.17 19.692-19.164 23.975-44.274 0.304-1.826 3.585-26.58 3.585-27.601 0.007-1.903-7.393 23.058-9.389 27.786-1.559 3.693-0.936 4.383-16.649 20.939-23.396 24.665-87.979 25.177-87.637 25.054 27.21-8.692 37.246-15.075 38.292-20.385 1.285-0.75 2.576-1.577 3.845-2.495-1.358 0.887-2.724 1.738-4.127 2.58-14.31 8.665-55.178-1.054-78.039-0.56 0 0 46.052-7.516 40.534-20.472l-8.996-17.357-149.67 46.825 134.08-76.882-42.316-81.603s10.89-68.09 41.403-32.507c5.537 6.425 3.927 4.153 10.926 16.575 5.819 10.336 6.361 17.925 35.851 23.176 0 0 62.66 13.802 38.522 62.238 0 0-11.95 19.662 2.435 16.79 0 0 50.072-11.023 32.332-79.647l0.008 0.011c-32.318-91.397-170-186.7-170-186.7s102 57.449 127.89 60.826c99.371 12.915 121.5 53.19 121.5 53.19-16.433-8.306-77.371-24.294-77.371-24.294 59.023 17.686 97.873 101.69 97.873 101.69" fill="#004b70"/></g></g></g></svg>
