<svg version="1.1" id="Layer_1" xmlns="http://www.w3.org/2000/svg" x="0" y="0" viewBox="0 0 538.6 158.7" xml:space="preserve"><path d="M20.6 33c-.4 0-.6.3-.6.7V122c0 2.6 2.2 4.7 4.9 4.7h20.8c2.3 0 4.1-1.8 4.1-3.9V88.1c0-.5.6-.7.9-.3L67 109.3c8.3 11 20.3 17.3 33 17.3h.3c.4 0 .6-.3.6-.7v25.7c0 3.4-2.9 6.2-6.4 6.2H7c-3.5 0-6.4-2.8-6.4-6.2V39.2C.7 35.7 3.5 33 7 33h13.6" fill="#009686"/><path d="M114.2 1H26.1C22.7 1 20 3.7 20 7v26.8c0-.4.3-.7.6-.7h2.5c11.3 0 22 5.6 29.4 15.4l17.7 23.4c.3.4.9.2.9-.3V37.9c0-2.7 2.3-4.9 5.2-4.9H96c2.7 0 4.9 2.1 4.9 4.7V126c0 .4-.3.7-.6.7h13.9c3.4 0 6.1-2.7 6.1-6V6.9c0-3.3-2.7-5.9-6.1-5.9z" fill="#008ec3"/><path d="M71.1 71.5c0 .5-.6.7-.9.3L52.5 48.4C45.1 38.6 34.4 33 23.1 33h-2.5c-.4 0-.6.3-.6.7V122c0 2.6 2.2 4.7 4.9 4.7h20.8c2.3 0 4.1-1.8 4.1-3.9V88.1c0-.5.6-.7.9-.3L67 109.3c8.3 11 20.3 17.3 33 17.3h.3c.4 0 .6-.3.6-.7V37.6C101 35 98.8 33 96 33H76.3c-2.9 0-5.2 2.2-5.2 4.9v33.6zM419.2 105c-13.1 0-23.2-10.8-23.2-24.7v-.2c0-13.8 10-24.6 23.2-24.6 8.2 0 13.7 3.5 18.5 8.1l2.9-3c-5.7-5.2-11.5-8.8-21.3-8.8-15.9 0-27.5 12.9-27.5 28.4v.2c0 15.8 11.6 28.2 27.3 28.2 9.7 0 16-3.8 21.8-9.6l-2.7-2.7c-5.6 5.7-11.1 8.7-19 8.7zm50.4-26.7c-13-2.7-16-6.2-16-12v-.2c0-5.7 5.3-10.4 13.4-10.4 6 0 11.2 1.7 16.4 6.2l2.6-3.2c-5.6-4.5-10.8-6.7-18.8-6.7-10.2 0-17.7 6.3-17.7 14.4v.2c0 8.3 5.3 12.8 18.5 15.5 12.5 2.5 15.5 5.9 15.5 11.7v.2c0 6.3-5.6 10.9-13.9 10.9-8.1 0-13.7-2.6-19.7-8.2l-2.7 3.1c6.6 5.9 13.3 8.8 22.1 8.8 10.6 0 18.2-6.1 18.2-15v-.2c.1-8-5.2-12.5-17.9-15.1zm64.2-25.5v25.5h-35.1V52.8h-4.1v55h4.1V82h35.1v25.8h4.1v-55zM222.7 51c-17 0-29.4 12.8-29.4 28.5v.2c0 15.7 12.2 28.4 29.2 28.4S252 95.3 252 79.6v-.2c0-15.7-12.3-28.4-29.3-28.4zm16.6 28.7c0 9.5-6.8 17.2-16.6 17.2-9.7 0-16.7-7.9-16.7-17.3v-.2c0-9.5 6.8-17.2 16.5-17.2 9.8 0 16.7 7.9 16.7 17.3v.2zm58-27.5c-3.7 0-6.9 2.3-8.2 5.7L276.8 91l-12.3-33.1c-1.3-3.4-4.5-5.7-8.2-5.7H249l22.3 55.6H282l22.3-55.6h-7zm-121.1 3.7v30.3l-22.8-29.9c-1.9-2.6-5-4.1-8.2-4.1h-6.1v55.2h12V72.3l23.9 31.4c1.8 2.3 4.5 3.7 7.5 3.7h5.1V52.2h-11.5v3.7zm136-3.7l-23.6 55.6h7.7c2.8 0 5.4-1.7 6.5-4.3l3.3-8h23.3l3.3 8c1.1 2.6 3.6 4.3 6.5 4.3h8l-23.6-55.6h-11.4zm-1.9 32.5l7.3-17.9 7.3 17.9h-14.6zm39.4 18.3l2 4.8h2V82.9h31.1v-3.8h-31.1V56.6h34.6v-3.8h-38.6zm-208.4 28.1v3.6h5.1v1.3h-5.1v4.1h-1.5v-10.2h7.2v1.3h-5.7zm13.6 6.4h-5.4l-1.1 2.6h-1.5l4.6-10.2h1.4l4.6 10.2H156l-1.1-2.6zm-.5-1.2l-2.2-5-2.2 5h4.4zm6.1 3.2c-.8-.5-1.5-1.1-1.9-1.9-.5-.8-.7-1.7-.7-2.7 0-1 .2-1.9.7-2.7.5-.8 1.1-1.4 1.9-1.9.8-.5 1.8-.7 2.8-.7.8 0 1.5.1 2.2.4.7.3 1.2.7 1.7 1.2l-1 .9c-.8-.8-1.7-1.2-2.9-1.2-.8 0-1.4.2-2.1.5-.6.3-1.1.8-1.4 1.4-.3.6-.5 1.3-.5 2s.2 1.4.5 2c.3.6.8 1.1 1.4 1.4s1.3.5 2.1.5c1.1 0 2.1-.4 2.9-1.2l1 .9c-.5.5-1 .9-1.7 1.2-.7.3-1.4.4-2.2.4-1 .2-1.9-.1-2.8-.5zm9.6-.5c-.8-.8-1.1-1.9-1.1-3.4v-5.8h1.5v5.8c0 2.2 1 3.3 2.9 3.3.9 0 1.7-.3 2.1-.8.5-.5.7-1.4.7-2.5v-5.8h1.4v5.8c0 1.5-.4 2.6-1.1 3.4-.8.8-1.8 1.2-3.2 1.2-1.4 0-2.4-.4-3.2-1.2zm10.3-9.2h1.5v9h5.5v1.3h-7v-10.3zm8.5 0h4.3c1.1 0 2 .2 2.9.6.8.4 1.5 1 2 1.8s.7 1.7.7 2.7c0 1-.2 1.9-.7 2.7-.5.8-1.1 1.4-2 1.8-.8.4-1.8.6-2.9.6h-4.3v-10.2zm4.2 9c.8 0 1.6-.2 2.2-.5.6-.3 1.1-.8 1.5-1.4.3-.6.5-1.2.5-2s-.2-1.4-.5-2c-.3-.6-.8-1-1.5-1.4-.6-.3-1.4-.5-2.2-.5h-2.8v7.7h2.8zm14-1.3h-5.4l-1.1 2.6H199l4.6-10.2h1.4l4.6 10.2h-1.5l-1-2.6zm-.5-1.2l-2.2-5-2.2 5h4.4zm4.5-6.5h4.3c1.1 0 2 .2 2.9.6.8.4 1.5 1 2 1.8s.7 1.7.7 2.7c0 1-.2 1.9-.7 2.7-.5.8-1.1 1.4-2 1.8-.8.4-1.8.6-2.9.6h-4.3v-10.2zm4.2 9c.8 0 1.6-.2 2.2-.5.6-.3 1.1-.8 1.5-1.4.3-.6.5-1.2.5-2s-.2-1.4-.5-2c-.3-.6-.8-1-1.5-1.4-.6-.3-1.4-.5-2.2-.5h-2.8v7.7h2.8zm15 0v1.3h-7.4v-10.2h7.2v1.3h-5.8v3.1h5.1v1.2h-5.1v3.3h6zm5.9-9h4.3c1.1 0 2 .2 2.9.6.8.4 1.5 1 2 1.8s.7 1.7.7 2.7c0 1-.2 1.9-.7 2.7-.5.8-1.1 1.4-2 1.8s-1.8.6-2.9.6h-4.3v-10.2zm4.2 9c.8 0 1.6-.2 2.2-.5.6-.3 1.1-.8 1.5-1.4.3-.6.5-1.2.5-2s-.2-1.4-.5-2c-.3-.6-.8-1-1.5-1.4-.6-.3-1.4-.5-2.2-.5h-2.8v7.7h2.8zm15.1 0v1.3h-7.4v-10.2h7.2v1.3h-5.8v3.1h5.1v1.2h-5.1v3.3h6zm7.7.7c-.8-.5-1.5-1.1-1.9-1.9-.5-.8-.7-1.7-.7-2.7 0-1 .2-1.9.7-2.7.5-.8 1.1-1.4 1.9-1.9.8-.5 1.8-.7 2.8-.7.8 0 1.5.1 2.2.4.7.3 1.2.7 1.7 1.2l-1 .9c-.8-.8-1.7-1.2-2.9-1.2-.8 0-1.4.2-2.1.5-.6.3-1.1.8-1.4 1.4-.3.6-.5 1.3-.5 2s.2 1.4.5 2c.3.6.8 1.1 1.4 1.4.6.3 1.3.5 2.1.5 1.1 0 2.1-.4 2.9-1.2l1 .9c-.5.5-1 .9-1.7 1.2-.7.3-1.4.4-2.2.4-1.1.2-2-.1-2.8-.5zm8.5-9.7h1.5V140h-1.5v-10.2zm11.7 9v1.3H276v-10.2h7.2v1.3h-5.8v3.1h5.1v1.2h-5.1v3.3h6zM281 129l-1.3-1.1-1.3 1.1H277l1.9-1.9h1.3l1.9 1.9H281zm13.4.8V140h-1.2l-6.1-7.6v7.6h-1.5v-10.2h1.2l6.1 7.6v-7.6h1.5zm4.7 9.7c-.8-.5-1.5-1.1-1.9-1.9-.5-.8-.7-1.7-.7-2.7 0-1 .2-1.9.7-2.7.5-.8 1.1-1.4 1.9-1.9.8-.5 1.8-.7 2.8-.7.8 0 1.5.1 2.2.4.7.3 1.2.7 1.7 1.2l-.9.9c-.8-.8-1.7-1.2-2.9-1.2-.8 0-1.4.2-2.1.5-.6.3-1.1.8-1.4 1.4-.3.6-.5 1.3-.5 2s.2 1.4.5 2c.3.6.8 1.1 1.4 1.4.6.3 1.3.5 2.1.5 1.1 0 2.1-.4 2.9-1.2l.9.9c-.5.5-1 .9-1.7 1.2-.7.3-1.4.4-2.2.4-1.1.2-2-.1-2.8-.5zm8.5-9.7h1.5V140h-1.5v-10.2zm10.8 7.7H313l-1.1 2.6h-1.5l4.6-10.2h1.4l4.7 10.2h-1.5l-1.2-2.6zm-.5-1.2l-2.2-5-2.2 5h4.4zm5.2 3.5c-.7-.2-1.3-.5-1.7-.9l.5-1.1c.4.4.9.6 1.5.9s1.2.3 1.9.3c.8 0 1.5-.1 1.9-.4.4-.3.6-.7.6-1.1 0-.4-.1-.6-.3-.9-.2-.2-.5-.4-.8-.5-.3-.1-.8-.2-1.4-.4-.8-.2-1.4-.4-1.9-.6-.5-.2-.9-.5-1.2-.9-.3-.4-.5-.9-.5-1.6 0-.5.1-1 .4-1.5.3-.4.7-.8 1.3-1.1.6-.3 1.3-.4 2.2-.4.6 0 1.2.1 1.8.2.6.2 1.1.4 1.5.7l-.5 1.2c-.4-.3-.9-.5-1.4-.6-.5-.1-1-.2-1.4-.2-.8 0-1.5.2-1.9.5-.4.3-.6.7-.6 1.2 0 .4.1.6.4.9.2.2.5.4.9.5.3.1.8.3 1.4.4.8.2 1.4.4 1.9.6.5.2.9.5 1.2.8.3.4.5.9.5 1.5 0 .5-.1 1-.4 1.5-.3.4-.7.8-1.3 1.1-.6.3-1.3.4-2.2.4-.9-.1-1.6-.3-2.4-.5zm12.6 0c-.7-.2-1.3-.5-1.7-.9l.5-1.1c.4.4.9.6 1.5.9s1.2.3 1.9.3c.8 0 1.5-.1 1.9-.4.4-.3.6-.7.6-1.1 0-.4-.1-.6-.3-.9-.2-.2-.5-.4-.8-.5-.3-.1-.8-.2-1.4-.4-.8-.2-1.4-.4-1.9-.6-.5-.2-.9-.5-1.2-.9-.3-.4-.5-.9-.5-1.6 0-.5.1-1 .4-1.5.3-.4.7-.8 1.3-1.1.6-.3 1.3-.4 2.2-.4.6 0 1.2.1 1.8.2.6.2 1.1.4 1.5.7l-.5 1.2c-.4-.3-.9-.5-1.4-.6-.5-.1-1-.2-1.4-.2-.8 0-1.4.2-1.9.5-.4.3-.6.7-.6 1.2 0 .4.1.6.4.9.2.2.5.4.9.5.3.1.8.3 1.4.4.8.2 1.4.4 1.9.6.5.2.9.5 1.2.8.3.4.5.9.5 1.5 0 .5-.1 1-.4 1.5-.3.4-.7.8-1.3 1.1-.6.3-1.3.4-2.2.4-.9-.1-1.7-.3-2.4-.5zm10-.3c-.8-.5-1.5-1.1-2-1.9-.5-.8-.7-1.7-.7-2.7s.2-1.9.7-2.7c.5-.8 1.1-1.4 2-1.9.8-.5 1.8-.7 2.8-.7 1 0 1.9.2 2.8.7.8.5 1.5 1.1 1.9 1.9.5.8.7 1.7.7 2.7 0 1-.2 1.9-.7 2.7-.5.8-1.1 1.4-1.9 1.9-.8.5-1.8.7-2.8.7-1.1 0-2-.3-2.8-.7zm4.8-1.2c.6-.3 1.1-.8 1.4-1.4.3-.6.5-1.3.5-2s-.2-1.4-.5-2c-.3-.6-.8-1.1-1.4-1.4-.6-.3-1.3-.5-2-.5-.8 0-1.4.2-2 .5-.6.3-1.1.8-1.4 1.4-.3.6-.5 1.3-.5 2s.2 1.4.5 2c.3.6.8 1.1 1.4 1.4.6.3 1.3.5 2 .5s1.4-.1 2-.5zm7.2 1.2c-.8-.5-1.5-1.1-1.9-1.9-.5-.8-.7-1.7-.7-2.7 0-1 .2-1.9.7-2.7.5-.8 1.1-1.4 1.9-1.9.8-.5 1.8-.7 2.8-.7.8 0 1.5.1 2.2.4.7.3 1.2.7 1.7 1.2l-1 .9c-.8-.8-1.7-1.2-2.9-1.2-.8 0-1.4.2-2.1.5-.6.3-1.1.8-1.4 1.4-.3.6-.5 1.3-.5 2s.2 1.4.5 2c.3.6.8 1.1 1.4 1.4.6.3 1.3.5 2.1.5 1.1 0 2.1-.4 2.9-1.2l1 .9c-.5.5-1 .9-1.7 1.2-.7.3-1.4.4-2.2.4-1.1.2-2-.1-2.8-.5zm8.5-9.7h1.5V140h-1.5v-10.2zm10.9 7.7h-5.4l-1.1 2.6H369l4.6-10.2h1.4l4.6 10.2h-1.5l-1-2.6zm-.5-1.2l-2.2-5-2.2 5h4.4zm4.4-6.5h1.5V140H381v-10.2zm5.1 10c-.7-.2-1.3-.5-1.7-.9l.5-1.1c.4.4.9.6 1.5.9s1.2.3 1.9.3c.8 0 1.5-.1 1.9-.4.4-.3.6-.7.6-1.1 0-.4-.1-.6-.3-.9-.2-.2-.5-.4-.8-.5-.3-.1-.8-.2-1.4-.4-.8-.2-1.4-.4-1.9-.6-.5-.2-.9-.5-1.2-.9-.3-.4-.5-.9-.5-1.6 0-.5.1-1 .4-1.5.3-.4.7-.8 1.3-1.1.6-.3 1.3-.4 2.2-.4.6 0 1.2.1 1.8.2.6.2 1.1.4 1.5.7l-.5 1.2c-.4-.3-.9-.5-1.4-.6-.5-.1-1-.2-1.4-.2-.8 0-1.4.2-1.9.5-.4.3-.6.7-.6 1.2 0 .4.1.6.4.9.2.2.5.4.9.5.3.1.8.3 1.4.4.8.2 1.4.4 1.9.6.5.2.9.5 1.2.8.3.4.5.9.5 1.5 0 .5-.1 1-.4 1.5-.3.4-.7.8-1.3 1.1-.6.3-1.3.4-2.2.4-.9-.1-1.7-.3-2.4-.5zm19.3-1v1.3H398v-10.2h7.2v1.3h-5.8v3.1h5.1v1.2h-5.1v3.3h6zm14.6-9V140h-1.5v-4.6h-5.9v4.6h-1.5v-10.2h1.5v4.4h5.9v-4.4h1.5zm3.9 9.2c-.8-.8-1.1-1.9-1.1-3.4v-5.8h1.5v5.8c0 2.2 1 3.3 2.9 3.3.9 0 1.7-.3 2.1-.8.5-.5.7-1.4.7-2.5v-5.8h1.4v5.8c0 1.5-.4 2.6-1.1 3.4-.8.8-1.8 1.2-3.2 1.2-1.4 0-2.4-.4-3.2-1.2zm19.8 1v-7.5l-3.7 6.2h-.7l-3.7-6.2v7.4h-1.4v-10.2h1.2l4.3 7.2 4.2-7.2h1.2v10.2h-1.4zm10.8-2.5H449l-1.1 2.6h-1.5l4.6-10.2h1.4l4.6 10.2h-1.5l-1-2.6zm-.5-1.2l-2.2-5-2.2 5h4.4zm13.2-6.5V140H466l-6.1-7.6v7.6h-1.5v-10.2h1.2l6.1 7.6v-7.6h1.5zm9.4 7.7h-5.4L470 140h-1.5l4.6-10.2h1.4l4.7 10.2h-1.5l-1.1-2.5zm-.5-1.2l-2.2-5-2.2 5h4.4zm5.2 3.5c-.7-.2-1.3-.5-1.7-.9l.5-1.1c.4.4.9.6 1.5.9s1.2.3 1.9.3c.8 0 1.5-.1 1.9-.4.4-.3.6-.7.6-1.1 0-.4-.1-.6-.3-.9-.2-.2-.5-.4-.8-.5-.3-.1-.8-.2-1.4-.4-.8-.2-1.4-.4-1.9-.6-.5-.2-.9-.5-1.2-.9-.3-.4-.5-.9-.5-1.6 0-.5.1-1 .4-1.5.3-.4.7-.8 1.3-1.1.6-.3 1.3-.4 2.2-.4.6 0 1.2.1 1.8.2.6.2 1.1.4 1.5.7l-.5 1.2c-.4-.3-.9-.5-1.4-.6-.5-.1-1-.2-1.4-.2-.8 0-1.5.2-1.9.5-.4.3-.6.7-.6 1.2 0 .4.1.6.4.9.2.2.5.4.9.5.3.1.8.3 1.4.4.8.2 1.4.4 1.9.6.5.2.9.5 1.2.8.3.4.5.9.5 1.5 0 .5-.1 1-.4 1.5-.3.4-.7.8-1.3 1.1-.6.3-1.3.4-2.2.4-.9-.1-1.7-.3-2.4-.5zm-340.8 16.7c-.8-.8-1.3-2-1.3-3.5v-5.7h2.9v5.6c0 1.6.6 2.5 1.9 2.5 1.3 0 1.9-.8 1.9-2.5v-5.6h2.9v5.7c0 1.5-.4 2.7-1.3 3.5-.8.8-2 1.2-3.5 1.2-1.5.1-2.7-.3-3.5-1.2zm20-9.2v10.2h-2.4l-4.5-5.5v5.5h-2.8v-10.2h2.4l4.5 5.5v-5.5h2.8zm2.1 0h2.9v10.2h-2.9v-10.2zm15.3 0l-4.4 10.2h-2.9l-4.4-10.2h3.1l2.8 6.7 2.8-6.7h3zm8.8 8v2.2h-8.2v-10.2h8v2.2h-5.2v1.7h4.5v2.2h-4.5v1.9h5.4zm6.1-.4h-1.6v2.7h-2.9v-10.2h4.7c.9 0 1.7.2 2.4.5s1.2.7 1.6 1.3.6 1.2.6 2c0 .7-.2 1.4-.5 1.9-.3.6-.8 1-1.5 1.3l2.2 3.2h-3.1l-1.9-2.7zm1.4-4.9c-.3-.3-.8-.4-1.3-.4h-1.6v3h1.6c.6 0 1-.1 1.3-.4.3-.3.5-.6.5-1.1-.1-.4-.2-.8-.5-1.1zm6.1 7.5c-.8-.2-1.4-.5-1.9-.8l1-2.1c.5.3 1 .5 1.6.7.6.2 1.2.3 1.8.3 1.1 0 1.7-.3 1.7-.8 0-.3-.2-.5-.5-.7-.3-.1-.8-.3-1.5-.4-.8-.2-1.4-.3-1.9-.5s-1-.5-1.3-.9c-.4-.4-.6-1-.6-1.7 0-.6.2-1.2.5-1.7s.9-.9 1.5-1.2c.7-.3 1.5-.4 2.5-.4.7 0 1.3.1 2 .2.7.2 1.2.4 1.7.7l-.9 2.1c-1-.5-1.9-.8-2.8-.8-.6 0-1 .1-1.3.3-.3.2-.4.4-.4.7 0 .3.2.5.5.6.3.1.8.3 1.5.4.8.2 1.4.3 1.9.5s1 .5 1.3.9c.4.4.6 1 .6 1.7 0 .6-.2 1.2-.5 1.7s-.9.9-1.5 1.2c-.7.3-1.5.4-2.5.4-.9-.1-1.7-.2-2.5-.4zm8.3-10.2h2.9v10.2h-2.9v-10.2zm4.9 0h4.8c1.1 0 2.1.2 3 .6.9.4 1.5 1 2 1.8s.7 1.7.7 2.7c0 1-.2 1.9-.7 2.7-.5.8-1.2 1.4-2 1.8-.9.4-1.9.6-3 .6h-4.8v-10.2zm4.8 8c.9 0 1.6-.2 2.1-.7.5-.5.8-1.2.8-2.1 0-.9-.3-1.6-.8-2.1s-1.2-.7-2.1-.7h-1.8v5.6h1.8zm14 .3H228l-.8 2h-3l4.5-10.2h2.9l4.5 10.2h-3l-.8-2zm-.8-2.1l-1.3-3.3-1.3 3.3h2.6zm5.5-6.2h4.8c1.1 0 2.1.2 3 .6s1.5 1 2 1.8.7 1.7.7 2.7c0 1-.2 1.9-.7 2.7-.5.8-1.2 1.4-2 1.8-.9.4-1.9.6-3 .6H237v-10.2zm4.7 8c.9 0 1.6-.2 2.1-.7.5-.5.8-1.2.8-2.1 0-.9-.3-1.6-.8-2.1s-1.2-.7-2.1-.7h-1.8v5.6h1.8zm15.6 0v2.2H249v-10.2h8v2.2h-5.2v1.7h4.5v2.2h-4.5v1.9h5.5zm15.6-8v10.2h-2.4L266 152v5.5h-2.8v-10.2h2.4l4.5 5.5v-5.5h2.8zm4.2 9.8c-.9-.5-1.5-1.1-2-1.9-.5-.8-.7-1.7-.7-2.7 0-1 .2-1.9.7-2.7.5-.8 1.2-1.4 2-1.9.9-.5 1.8-.7 2.9-.7s2.1.2 2.9.7c.9.5 1.5 1.1 2 1.9.5.8.7 1.7.7 2.7 0 1-.2 1.9-.7 2.7-.5.8-1.2 1.4-2 1.9-.9.5-1.8.7-2.9.7s-2-.2-2.9-.7zm4.4-2.1c.4-.2.7-.6 1-1 .2-.4.4-1 .4-1.5 0-.6-.1-1.1-.4-1.5-.2-.4-.6-.8-1-1-.4-.2-.9-.4-1.4-.4-.5 0-1 .1-1.4.4-.4.2-.8.6-1 1-.2.4-.4 1-.4 1.5 0 .6.1 1.1.4 1.5.2.4.6.8 1 1 .4.2.9.4 1.4.4.5 0 .9-.1 1.4-.4zm15.8-7.7l-4.4 10.2H290l-4.4-10.2h3.1l2.8 6.7 2.8-6.7h3zm7.1 8.3h-4.3l-.8 2h-3l4.5-10.2h2.9l4.5 10.2h-3l-.8-2zm-.8-2.1l-1.3-3.3-1.3 3.3h2.6zm9.7-6.2h4.8c1.1 0 2.1.2 3 .6.9.4 1.5 1 2 1.8s.7 1.7.7 2.7c0 1-.2 1.9-.7 2.7-.5.8-1.2 1.4-2 1.8-.9.4-1.9.6-3 .6h-4.8v-10.2zm4.7 8c.9 0 1.6-.2 2.1-.7.5-.5.8-1.2.8-2.1 0-.9-.3-1.6-.8-2.1s-1.2-.7-2.1-.7h-1.8v5.6h1.8zm15.6 0v2.2h-8.2v-10.2h8v2.2h-5.2v1.7h4.5v2.2h-4.5v1.9h5.4zm5.9-8h2.9v7.9h4.9v2.3h-7.8v-10.2zm8.9 0h2.9v10.2h-2.9v-10.2zm6.1 10.2c-.8-.2-1.4-.5-1.9-.8l.9-2.1c.5.3 1 .5 1.6.7.6.2 1.2.3 1.8.3 1.1 0 1.7-.3 1.7-.8 0-.3-.2-.5-.5-.7-.3-.1-.8-.3-1.5-.4-.8-.2-1.4-.3-1.9-.5s-1-.5-1.3-.9c-.4-.4-.6-1-.6-1.7 0-.6.2-1.2.5-1.7s.9-.9 1.5-1.2c.7-.3 1.5-.4 2.5-.4.7 0 1.3.1 2 .2.7.2 1.2.4 1.7.7l-.9 2.1c-1-.5-1.9-.8-2.8-.8-.6 0-1 .1-1.3.3-.3.2-.4.4-.4.7 0 .3.2.5.5.6.3.1.8.3 1.5.4.8.2 1.4.3 1.9.5s1 .5 1.3.9c.4.4.6 1 .6 1.7 0 .6-.2 1.2-.5 1.7s-.9.9-1.5 1.2c-.7.3-1.5.4-2.5.4-.8-.1-1.6-.2-2.4-.4zm17.5-4.3c.3.4.5 1 .5 1.6 0 .9-.4 1.6-1.1 2.1-.7.5-1.8.7-3.1.7h-5.5v-10.2h5.2c1.3 0 2.3.2 3 .7.7.5 1 1.1 1 2 0 .5-.1.9-.4 1.3-.2.4-.6.7-1 .9.6.1 1.1.5 1.4.9zm-6.3-3.8v2h2c1 0 1.5-.3 1.5-1s-.5-1-1.5-1h-2zm3.9 5c0-.7-.5-1-1.5-1h-2.4v2.1h2.4c1 0 1.5-.4 1.5-1.1zm6.7 2.7c-.9-.5-1.5-1.1-2-1.9-.5-.8-.7-1.7-.7-2.7 0-1 .2-1.9.7-2.7.5-.8 1.2-1.4 2-1.9.9-.5 1.8-.7 2.9-.7 1.1 0 2.1.2 2.9.7.9.5 1.5 1.1 2 1.9.5.8.7 1.7.7 2.7 0 1-.2 1.9-.7 2.7-.5.8-1.2 1.4-2 1.9-.9.5-1.8.7-2.9.7-1.1 0-2.1-.2-2.9-.7zm4.3-2.1c.4-.2.8-.6 1-1 .2-.4.4-1 .4-1.5 0-.6-.1-1.1-.4-1.5-.2-.4-.6-.8-1-1-.4-.2-.9-.4-1.4-.4-.5 0-1 .1-1.4.4-.4.2-.7.6-1 1-.2.4-.4 1-.4 1.5 0 .6.1 1.1.4 1.5.2.4.6.8 1 1 .4.2.9.4 1.4.4.5 0 1-.1 1.4-.4zm12.5.6h-4.3l-.8 2h-3l4.5-10.2h2.9l4.5 10.2h-3l-.8-2zm-.8-2.1l-1.3-3.3-1.3 3.3h2.6z" fill="#1d3767"/></svg>